# xmcd
#
# Track frame offsets: 
#        150
#        24681
#        48346
#        70931
#        89364
#        112422
#        133919
#        159624
#        180983
#        205223
#        221225
#        250412
#
# Disc length: 3600 seconds
#
# Revision: 0
# Processed by: cddbd v1.5.2PL0 Copyright (c) Steve Scherf et al.
# Submitted via: ExactAudioCopyFreeDBPlugin 1.0
#
DISCID=b90e0e0c
DTITLE=Re-In - Wake Up My Friend
DYEAR=2012
DGENRE=Blues
TTITLE0=Pretty Woman
TTITLE1=The Thrill Is Gone
TTITLE2=Sitting On Top Of The World
TTITLE3=Seven Moons
TTITLE4=Politician
TTITLE5=Sweet Home Chicago
TTITLE6=Dear Mr. Fantasy
TTITLE7=Blue Jean Blues
TTITLE8=Fool's Moon
TTITLE9=I'm So Glad
TTITLE10=Soul Shine
TTITLE11=Wake Up My Friend
EXTD=
EXTT0=
EXTT1=
EXTT2=
EXTT3=
EXTT4=
EXTT5=
EXTT6=
EXTT7=
EXTT8=
EXTT9=
EXTT10=
EXTT11=
PLAYORDER=
